<svg xmlns="http://www.w3.org/2000/svg" viewBox="0 0 520 96" fill="none" role="img" aria-label="Evidence Engine">
  <defs>
    <linearGradient id="brassW" x1="0" y1="0" x2="0" y2="1">
      <stop offset="0" stop-color="#f6e6bd"></stop>
      <stop offset="0.5" stop-color="#c9a14a"></stop>
      <stop offset="1" stop-color="#8a6a2f"></stop>
    </linearGradient>
    <radialGradient id="coneW" cx="0.5" cy="0" r="0.9">
      <stop offset="0" stop-color="#e8c97e" stop-opacity="0.8"></stop>
      <stop offset="0.6" stop-color="#c9a14a" stop-opacity="0.22"></stop>
      <stop offset="1" stop-color="#c9a14a" stop-opacity="0"></stop>
    </radialGradient>
  </defs>

  
  <g transform="translate(4,8)">
    <polygon points="24,2 56,2 78,24 78,56 56,78 24,78 2,56 2,24" fill="#100c09" stroke="url(#brassW)" stroke-width="1.4"></polygon>
    <rect x="38.5" y="11" width="2.4" height="7" fill="#8a6a2f"></rect>
    <path d="M27 26 C27 18 33 15 40 15 C47 15 53 18 53 26 Z" fill="url(#brassW)"></path>
    <ellipse cx="40" cy="26" rx="13" ry="2.2" fill="#6b4f24"></ellipse>
    <path d="M29 27 L51 27 L60 64 L20 64 Z" fill="url(#coneW)"></path>
    <rect x="28" y="56" width="24" height="15" rx="1.2" fill="#e9dec2"></rect>
    <line x1="32" y1="61" x2="48" y2="61" stroke="#5c4f3a" stroke-width="1"></line>
    <path d="M33 65 l3 3 l7 -8" fill="none" stroke="#c5302f" stroke-width="1.8" stroke-linecap="round" stroke-linejoin="round"></path>
  </g>

  
  <text x="100" y="40" font-family="Oswald, &#39;Arial Narrow&#39;, sans-serif" font-weight="600" font-size="33" letter-spacing="6" fill="#ece1c6">EVIDENCE</text>
  
  <text x="101" y="78" font-family="&#39;Playfair Display&#39;, Georgia, serif" font-style="italic" font-weight="500" font-size="30" letter-spacing="1" fill="url(#brassW)">Engine</text>
  
  <line x1="232" y1="69" x2="508" y2="69" stroke="#c9a14a" stroke-opacity="0.4" stroke-width="1"></line>
  <text x="240" y="66" font-family="&#39;Special Elite&#39;, monospace" font-size="11" letter-spacing="3" fill="#8a7f64">PUT AN AI ON THE STAND</text>
</svg>